<?xml version="1.0" standalone="no"?>
<!DOCTYPE svg PUBLIC "-//W3C//DTD SVG 20010904//EN"
 "http://www.w3.org/TR/2001/REC-SVG-20010904/DTD/svg10.dtd">
<svg version="1.0" xmlns="http://www.w3.org/2000/svg"
 width="64.000000pt" height="64.000000pt" viewBox="0 0 64.000000 64.000000"
 preserveAspectRatio="xMidYMid meet">

<g transform="translate(0.000000,64.000000) scale(0.100000,-0.100000)"
fill="#000000" stroke="none">
<path d="M300 620 c-10 -6 -13 -23 -11 -54 3 -46 2 -46 -23 -35 -19 9 -32 9
-57 -1 -48 -20 -79 -109 -49 -145 5 -6 6 -15 2 -19 -6 -6 47 2 56 9 1 1 -3 15
-8 32 -15 42 2 83 34 83 25 0 52 -31 38 -44 -3 -4 0 -11 8 -16 12 -8 12 -10
-3 -16 -26 -10 -2 -34 35 -34 23 0 29 4 24 15 -3 8 -1 15 4 15 5 0 11 -8 15
-19 7 -22 74 -71 97 -71 57 0 108 50 108 105 0 64 -69 123 -129 110 -28 -6
-74 -47 -84 -75 -3 -8 -6 27 -6 78 -1 81 -3 92 -18 92 -10 0 -25 -4 -33 -10z
m204 -146 c9 -8 16 -18 16 -20 0 -12 -24 -50 -39 -61 -19 -14 -75 -17 -66 -4
3 5 1 12 -4 15 -15 10 -1 45 27 66 30 24 46 25 66 4z"/>
<path d="M226 321 c-16 -6 -19 -19 -20 -92 l-1 -84 -33 -3 c-18 -2 -32 0 -31
5 1 4 1 43 0 86 -1 81 -8 90 -50 68 -15 -8 -16 -19 -9 -97 4 -48 11 -91 15
-95 4 -4 44 3 88 16 44 13 76 24 71 24 -5 1 -4 7 2 14 13 15 10 159 -3 163 -5
1 -18 -1 -29 -5z"/>
<path d="M291 230 c1 -89 2 -91 30 -106 32 -16 31 -18 29 49 -2 53 18 87 52
87 12 0 18 7 18 21 0 19 -4 21 -39 16 -29 -3 -41 -1 -45 9 -3 8 -15 14 -26 14
-20 0 -21 -5 -19 -90z"/>
<path d="M505 271 c-8 -15 3 -31 21 -31 9 0 14 7 12 17 -4 20 -24 28 -33 14z
m25 -11 c0 -5 -4 -10 -10 -10 -5 0 -10 5 -10 10 0 6 5 10 10 10 6 0 10 -4 10
-10z"/>
<path d="M474 218 c-5 -7 -3 -8 6 -3 7 4 16 2 21 -6 4 -7 11 -10 16 -6 4 5 1
12 -7 17 -20 13 -27 12 -36 -2z"/>
<path d="M465 180 c-4 -7 -3 -16 3 -22 14 -14 45 -2 40 15 -6 16 -34 21 -43 7z
m30 -10 c3 -5 -1 -10 -9 -10 -9 0 -16 5 -16 10 0 6 4 10 9 10 6 0 13 -4 16
-10z"/>
<path d="M453 128 c-3 -6 -1 -8 5 -4 6 3 13 2 17 -4 8 -12 25 -13 25 -1 0 13
-39 21 -47 9z"/>
<path d="M222 50 c0 -14 2 -19 5 -12 2 6 2 18 0 25 -3 6 -5 1 -5 -13z"/>
<path d="M256 61 c-4 -6 -3 -19 3 -28 9 -17 10 -17 17 0 8 21 -10 45 -20 28z"/>
<path d="M140 54 c0 -10 28 -33 33 -27 3 3 0 12 -8 19 -14 15 -25 18 -25 8z"/>
<path d="M117 30 c3 -11 7 -20 9 -20 2 0 4 9 4 20 0 11 -4 20 -9 20 -5 0 -7
-9 -4 -20z"/>
</g>
</svg>
