<?xml version="1.0" encoding="UTF-8"?>
<!DOCTYPE svg PUBLIC "-//W3C//DTD SVG 1.1//EN" "http://www.w3.org/Graphics/SVG/1.1/DTD/svg11.dtd">
<svg xmlns="http://www.w3.org/2000/svg" version="1.1" width="356px" height="338px" style="shape-rendering:geometricPrecision; text-rendering:geometricPrecision; image-rendering:optimizeQuality; fill-rule:evenodd; clip-rule:evenodd" xmlns:xlink="http://www.w3.org/1999/xlink">
<g><path style="opacity:0.281" fill="#a7a7a7" d="M 249.5,46.5 C 182.5,46.5 115.5,46.5 48.5,46.5C 48.5,63.5 48.5,80.5 48.5,97.5C 47.5033,80.3414 47.17,63.008 47.5,45.5C 115.002,45.1675 182.335,45.5008 249.5,46.5 Z"/></g>
<g><path style="opacity:1" fill="#0f0f0f" d="M 249.5,46.5 C 253.894,46.8437 258.228,47.5103 262.5,48.5C 266.699,49.9713 271.033,51.3047 275.5,52.5C 293.155,58.4831 308.155,68.4831 320.5,82.5C 320.427,84.0269 321.094,85.0269 322.5,85.5C 325.5,87.6676 328,90.3343 330,93.5C 333.002,89.3319 336.502,85.6652 340.5,82.5C 342.749,81.9202 344.415,80.5869 345.5,78.5C 348.429,75.3637 351.762,72.697 355.5,70.5C 355.5,74.5 355.5,78.5 355.5,82.5C 353.772,84.2255 351.772,85.5589 349.5,86.5C 348.5,86.8333 347.833,87.5 347.5,88.5C 343.389,93.2103 339.389,98.0436 335.5,103C 348.62,126.016 352.453,150.516 347,176.5C 344.144,192.398 339.311,207.564 332.5,222C 333.906,223.978 334.906,226.145 335.5,228.5C 335.427,230.027 336.094,231.027 337.5,231.5C 342.744,239.414 348.744,246.748 355.5,253.5C 355.5,264.833 355.5,276.167 355.5,287.5C 352.883,286.214 350.55,284.547 348.5,282.5C 347.415,280.413 345.749,279.08 343.5,278.5C 333.364,269.866 324.864,259.866 318,248.5C 315.812,251.567 313.645,254.567 311.5,257.5C 310.094,257.973 309.427,258.973 309.5,260.5C 309.5,261.167 309.167,261.5 308.5,261.5C 307.5,261.833 306.833,262.5 306.5,263.5C 305.308,265.878 303.641,267.878 301.5,269.5C 300.094,269.973 299.427,270.973 299.5,272.5C 284.991,288.662 267.324,299.995 246.5,306.5C 244.102,306.259 242.102,306.926 240.5,308.5C 236.764,309.989 232.764,310.656 228.5,310.5C 169.167,310.5 109.833,310.5 50.5,310.5C 47.6676,308.593 46.8343,305.927 48,302.5C 69.4311,261.921 90.5978,221.254 111.5,180.5C 112.906,180.027 113.573,179.027 113.5,177.5C 114.561,174.378 115.895,171.378 117.5,168.5C 118.906,168.027 119.573,167.027 119.5,165.5C 124.744,154.515 130.41,143.682 136.5,133C 140.48,130.049 144.48,129.882 148.5,132.5C 145.392,139.053 142.059,145.386 138.5,151.5C 137.326,152.514 136.66,153.847 136.5,155.5C 135.258,159.655 133.258,163.322 130.5,166.5C 129.326,167.514 128.66,168.847 128.5,170.5C 128.5,170.833 128.5,171.167 128.5,171.5C 127.094,171.973 126.427,172.973 126.5,174.5C 123.499,180.505 120.499,186.505 117.5,192.5C 116.599,193.29 115.932,194.29 115.5,195.5C 113.009,201.815 110.009,207.815 106.5,213.5C 105.326,214.514 104.66,215.847 104.5,217.5C 103.528,220.132 102.195,222.465 100.5,224.5C 98.9291,226.635 97.5957,228.968 96.5,231.5C 96.6085,233.514 95.9418,235.18 94.5,236.5C 93.3263,237.514 92.6596,238.847 92.5,240.5C 92.6716,241.492 92.3382,242.158 91.5,242.5C 89.8958,243.287 89.2291,244.62 89.5,246.5C 88.7368,248.368 87.7368,250.035 86.5,251.5C 84.9925,253.181 83.9925,255.181 83.5,257.5C 79.9055,264.474 78.9055,271.808 80.5,279.5C 80.2291,281.38 80.8958,282.713 82.5,283.5C 83.3382,283.842 83.6716,284.508 83.5,285.5C 83.427,287.027 84.0937,288.027 85.5,288.5C 85.8333,290.833 87.1667,292.167 89.5,292.5C 90.1667,292.5 90.5,292.833 90.5,293.5C 90.9731,294.906 91.9731,295.573 93.5,295.5C 95.8123,296.32 98.1457,297.153 100.5,298C 143.167,298.667 185.833,298.667 228.5,298C 240.594,295.894 252.261,292.394 263.5,287.5C 265.027,287.573 266.027,286.906 266.5,285.5C 268.001,284.248 269.668,283.248 271.5,282.5C 273.027,282.573 274.027,281.906 274.5,280.5C 276.404,280.262 277.738,279.262 278.5,277.5C 278.833,276.5 279.5,275.833 280.5,275.5C 282.027,275.573 283.027,274.906 283.5,273.5C 285.5,270.833 287.833,268.5 290.5,266.5C 293.243,264.761 295.243,262.427 296.5,259.5C 296.5,258.833 296.833,258.5 297.5,258.5C 300.243,256.761 302.243,254.427 303.5,251.5C 303.738,249.596 304.738,248.262 306.5,247.5C 307.906,247.027 308.573,246.027 308.5,244.5C 309.263,242.632 310.263,240.965 311.5,239.5C 312.794,237.32 312.461,235.32 310.5,233.5C 309.662,233.158 309.328,232.492 309.5,231.5C 309.598,229.447 308.931,227.78 307.5,226.5C 295.959,195.965 295.626,165.299 306.5,134.5C 307.674,133.486 308.34,132.153 308.5,130.5C 309.26,126.973 310.594,123.64 312.5,120.5C 312.137,119.817 311.804,119.15 311.5,118.5C 311.715,116.821 311.048,115.821 309.5,115.5C 309.167,114.833 308.833,114.167 308.5,113.5C 308.573,111.973 307.906,110.973 306.5,110.5C 303.815,107.81 301.482,104.81 299.5,101.5C 299.5,99.5 298.5,98.5 296.5,98.5C 294.167,95.8333 291.833,93.1667 289.5,90.5C 288.415,88.4131 286.749,87.0798 284.5,86.5C 282.091,85.2993 280.091,83.6326 278.5,81.5C 278.027,80.0937 277.027,79.427 275.5,79.5C 275.027,78.0937 274.027,77.427 272.5,77.5C 270.632,76.7368 268.965,75.7368 267.5,74.5C 265.819,72.9925 263.819,71.9925 261.5,71.5C 250.922,66.4184 239.922,62.7517 228.5,60.5C 227.081,59.5489 225.415,59.2155 223.5,59.5C 191.974,58.8463 160.474,58.5129 129,58.5C 97.9842,59.2485 74.4842,72.7485 58.5,99C 54.6537,101.261 51.3204,100.761 48.5,97.5C 48.5,80.5 48.5,63.5 48.5,46.5C 115.5,46.5 182.5,46.5 249.5,46.5 Z M 321.5,139.5 C 328.022,161.871 329.188,184.537 325,207.5C 317.795,185.941 315.962,163.941 319.5,141.5C 320.167,140.833 320.833,140.167 321.5,139.5 Z"/></g>
<g><path style="opacity:0.059" fill="#d1d1d1" d="M 262.5,48.5 C 267.36,48.4596 271.693,49.7929 275.5,52.5C 271.033,51.3047 266.699,49.9713 262.5,48.5 Z"/></g>
<g><path style="opacity:0.518" fill="#aeaeae" d="M 223.5,59.5 C 225.415,59.2155 227.081,59.5489 228.5,60.5C 226.741,61.2614 225.074,60.9281 223.5,59.5 Z"/></g>
<g><path style="opacity:0.024" fill="#cacaca" d="M 261.5,71.5 C 263.819,71.9925 265.819,72.9925 267.5,74.5C 264.911,74.539 262.911,73.539 261.5,71.5 Z"/></g>
<g><path style="opacity:0.416" fill="#9c9c9c" d="M 272.5,77.5 C 274.027,77.427 275.027,78.0937 275.5,79.5C 273.973,79.573 272.973,78.9063 272.5,77.5 Z"/></g>
<g><path style="opacity:0.431" fill="#959595" d="M 275.5,79.5 C 277.027,79.427 278.027,80.0937 278.5,81.5C 276.973,81.573 275.973,80.9063 275.5,79.5 Z"/></g>
<g><path style="opacity:0.796" fill="#5f5f5f" d="M 345.5,78.5 C 344.415,80.5869 342.749,81.9202 340.5,82.5C 341.585,80.4131 343.251,79.0798 345.5,78.5 Z"/></g>
<g><path style="opacity:0.843" fill="#7b7b7b" d="M 320.5,82.5 C 321.906,82.9731 322.573,83.9731 322.5,85.5C 321.094,85.0269 320.427,84.0269 320.5,82.5 Z"/></g>
<g><path style="opacity:0.733" fill="#949494" d="M 284.5,86.5 C 286.749,87.0798 288.415,88.4131 289.5,90.5C 287.251,89.9202 285.585,88.5869 284.5,86.5 Z"/></g>
<g><path style="opacity:0.02" fill="#c2c2c2" d="M 349.5,86.5 C 349.5,87.8333 348.833,88.5 347.5,88.5C 347.833,87.5 348.5,86.8333 349.5,86.5 Z"/></g>
<g><path style="opacity:0.557" fill="#adadad" d="M 296.5,98.5 C 298.5,98.5 299.5,99.5 299.5,101.5C 298.167,100.833 297.167,99.8333 296.5,98.5 Z"/></g>
<g><path style="opacity:0.024" fill="#d0d0d0" d="M 306.5,110.5 C 307.906,110.973 308.573,111.973 308.5,113.5C 307.094,113.027 306.427,112.027 306.5,110.5 Z"/></g>
<g><path style="opacity:0.898" fill="#808080" d="M 309.5,115.5 C 311.048,115.821 311.715,116.821 311.5,118.5C 310.599,117.71 309.932,116.71 309.5,115.5 Z"/></g>
<g><path style="opacity:0.059" fill="#c0c0c0" d="M 308.5,130.5 C 308.34,132.153 307.674,133.486 306.5,134.5C 306.229,132.62 306.896,131.287 308.5,130.5 Z"/></g>
<g><path style="opacity:0.043" fill="#d0d0d0" d="M 321.5,139.5 C 320.833,140.167 320.167,140.833 319.5,141.5C 319.238,140.022 319.571,138.689 320.5,137.5C 321.298,137.957 321.631,138.624 321.5,139.5 Z"/></g>
<g><path style="opacity:0.039" fill="#d3d3d3" d="M 138.5,151.5 C 138.771,153.38 138.104,154.713 136.5,155.5C 136.66,153.847 137.326,152.514 138.5,151.5 Z"/></g>
<g><path style="opacity:0.118" fill="#cdcdcd" d="M 119.5,165.5 C 119.573,167.027 118.906,168.027 117.5,168.5C 117.427,166.973 118.094,165.973 119.5,165.5 Z"/></g>
<g><path style="opacity:0.09" fill="#b7b7b7" d="M 130.5,166.5 C 130.771,168.38 130.104,169.713 128.5,170.5C 128.66,168.847 129.326,167.514 130.5,166.5 Z"/></g>
<g><path style="opacity:0.106" fill="#cccccc" d="M 128.5,171.5 C 128.573,173.027 127.906,174.027 126.5,174.5C 126.427,172.973 127.094,171.973 128.5,171.5 Z"/></g>
<g><path style="opacity:0.294" fill="#a5a5a5" d="M 113.5,177.5 C 113.573,179.027 112.906,180.027 111.5,180.5C 111.427,178.973 112.094,177.973 113.5,177.5 Z"/></g>
<g><path style="opacity:0.024" fill="#ededed" d="M 117.5,192.5 C 117.715,194.179 117.048,195.179 115.5,195.5C 115.932,194.29 116.599,193.29 117.5,192.5 Z"/></g>
<g><path style="opacity:0.031" fill="#e1e1e1" d="M 106.5,213.5 C 106.771,215.38 106.104,216.713 104.5,217.5C 104.66,215.847 105.326,214.514 106.5,213.5 Z"/></g>
<g><path style="opacity:0.094" fill="#d4d4d4" d="M 100.5,224.5 C 100.416,227.682 99.0827,230.015 96.5,231.5C 97.5957,228.968 98.9291,226.635 100.5,224.5 Z"/></g>
<g><path style="opacity:0.114" fill="#c9c9c9" d="M 307.5,226.5 C 308.931,227.78 309.598,229.447 309.5,231.5C 308.069,230.22 307.402,228.553 307.5,226.5 Z"/></g>
<g><path style="opacity:0.298" fill="#a3a3a3" d="M 335.5,228.5 C 336.906,228.973 337.573,229.973 337.5,231.5C 336.094,231.027 335.427,230.027 335.5,228.5 Z"/></g>
<g><path style="opacity:0.094" fill="#cccccc" d="M 310.5,233.5 C 312.461,235.32 312.794,237.32 311.5,239.5C 311.167,237.5 310.833,235.5 310.5,233.5 Z"/></g>
<g><path style="opacity:0.035" fill="#dbdbdb" d="M 94.5,236.5 C 94.7709,238.38 94.1042,239.713 92.5,240.5C 92.6596,238.847 93.3263,237.514 94.5,236.5 Z"/></g>
<g><path style="opacity:0.157" fill="#cccccc" d="M 91.5,242.5 C 91.3404,244.153 90.6737,245.486 89.5,246.5C 89.2291,244.62 89.8958,243.287 91.5,242.5 Z"/></g>
<g><path style="opacity:0.545" fill="#7e7e7e" d="M 308.5,244.5 C 308.573,246.027 307.906,247.027 306.5,247.5C 306.427,245.973 307.094,244.973 308.5,244.5 Z"/></g>
<g><path style="opacity:0.055" fill="#d5d5d5" d="M 86.5,251.5 C 86.539,254.089 85.539,256.089 83.5,257.5C 83.9925,255.181 84.9925,253.181 86.5,251.5 Z"/></g>
<g><path style="opacity:0.584" fill="#9c9c9c" d="M 303.5,251.5 C 302.243,254.427 300.243,256.761 297.5,258.5C 298.757,255.573 300.757,253.239 303.5,251.5 Z"/></g>
<g><path style="opacity:0.004" fill="#dbdbdb" d="M 311.5,257.5 C 311.573,259.027 310.906,260.027 309.5,260.5C 309.427,258.973 310.094,257.973 311.5,257.5 Z"/></g>
<g><path style="opacity:0.718" fill="#898989" d="M 296.5,259.5 C 295.243,262.427 293.243,264.761 290.5,266.5C 291.757,263.573 293.757,261.239 296.5,259.5 Z"/></g>
<g><path style="opacity:0.012" fill="#dcdcdc" d="M 308.5,261.5 C 308.5,262.833 307.833,263.5 306.5,263.5C 306.833,262.5 307.5,261.833 308.5,261.5 Z"/></g>
<g><path style="opacity:0.004" fill="#c9c9c9" d="M 301.5,269.5 C 301.573,271.027 300.906,272.027 299.5,272.5C 299.427,270.973 300.094,269.973 301.5,269.5 Z"/></g>
<g><path style="opacity:0.682" fill="#838383" d="M 283.5,273.5 C 283.027,274.906 282.027,275.573 280.5,275.5C 280.973,274.094 281.973,273.427 283.5,273.5 Z"/></g>
<g><path style="opacity:0.616" fill="#8c8c8c" d="M 278.5,277.5 C 277.738,279.262 276.404,280.262 274.5,280.5C 275.262,278.738 276.596,277.738 278.5,277.5 Z"/></g>
<g><path style="opacity:0.855" fill="#8d8d8d" d="M 343.5,278.5 C 345.749,279.08 347.415,280.413 348.5,282.5C 346.251,281.92 344.585,280.587 343.5,278.5 Z"/></g>
<g><path style="opacity:0.725" fill="#919191" d="M 274.5,280.5 C 274.027,281.906 273.027,282.573 271.5,282.5C 271.973,281.094 272.973,280.427 274.5,280.5 Z"/></g>
<g><path style="opacity:0.133" fill="#d0d0d0" d="M 80.5,279.5 C 81.6737,280.514 82.3404,281.847 82.5,283.5C 80.8958,282.713 80.2291,281.38 80.5,279.5 Z"/></g>
<g><path style="opacity:0.729" fill="#818181" d="M 266.5,285.5 C 266.027,286.906 265.027,287.573 263.5,287.5C 263.973,286.094 264.973,285.427 266.5,285.5 Z"/></g>
<g><path style="opacity:0.149" fill="#d1d1d1" d="M 83.5,285.5 C 84.9063,285.973 85.573,286.973 85.5,288.5C 84.0937,288.027 83.427,287.027 83.5,285.5 Z"/></g>
<g><path style="opacity:0.706" fill="#9e9e9e" d="M 85.5,288.5 C 87.1667,289.5 88.5,290.833 89.5,292.5C 87.1667,292.167 85.8333,290.833 85.5,288.5 Z"/></g>
<g><path style="opacity:0.024" fill="#b8b8b8" d="M 90.5,293.5 C 92.0269,293.427 93.0269,294.094 93.5,295.5C 91.9731,295.573 90.9731,294.906 90.5,293.5 Z"/></g>
<g><path style="opacity:0.039" fill="#d2d2d2" d="M 246.5,306.5 C 244.786,307.738 242.786,308.405 240.5,308.5C 242.102,306.926 244.102,306.259 246.5,306.5 Z"/></g>
<g><path style="opacity:0.813" fill="#3e3e3e" d="M 50.5,310.5 C 109.833,310.5 169.167,310.5 228.5,310.5C 185.098,311.169 141.598,311.836 98,312.5C 87.2349,311.448 76.4016,311.448 65.5,312.5C 60.2449,312.666 55.2449,311.999 50.5,310.5 Z"/></g>
</svg>
